<svg id="visual" viewBox="0 0 960 540" width="960" height="540" xmlns="http://www.w3.org/2000/svg" xmlns:xlink="http://www.w3.org/1999/xlink" version="1.1"><rect x="0" y="0" width="960" height="540" fill="#626F47"></rect><path d="M0 453L14.5 443C29 433 58 413 87.2 411.7C116.3 410.3 145.7 427.7 174.8 430.5C204 433.3 233 421.7 262 398.5C291 375.3 320 340.7 349 329.7C378 318.7 407 331.3 436.2 342.2C465.3 353 494.7 362 523.8 359.5C553 357 582 343 611 335.3C640 327.7 669 326.3 698 336.7C727 347 756 369 785.2 387C814.3 405 843.7 419 872.8 423.8C902 428.7 931 424.3 945.5 422.2L960 420L960 541L945.5 541C931 541 902 541 872.8 541C843.7 541 814.3 541 785.2 541C756 541 727 541 698 541C669 541 640 541 611 541C582 541 553 541 523.8 541C494.7 541 465.3 541 436.2 541C407 541 378 541 349 541C320 541 291 541 262 541C233 541 204 541 174.8 541C145.7 541 116.3 541 87.2 541C58 541 29 541 14.5 541L0 541Z" fill="#758359" stroke-linecap="round" stroke-linejoin="miter"></path></svg>