<svg id="visual" viewBox="0 0 900 600" width="900" height="600" xmlns="http://www.w3.org/2000/svg" xmlns:xlink="http://www.w3.org/1999/xlink" version="1.1"><rect x="0" y="0" width="900" height="600" fill="#758359"></rect><path d="M0 351L129 392L257 430L386 413L514 386L643 392L771 391L900 395L900 601L771 601L643 601L514 601L386 601L257 601L129 601L0 601Z" fill="#e5d5a8"></path><path d="M0 478L129 437L257 413L386 426L514 463L643 427L771 469L900 404L900 601L771 601L643 601L514 601L386 601L257 601L129 601L0 601Z" fill="#ecd493"></path><path d="M0 445L129 486L257 494L386 450L514 507L643 505L771 447L900 443L900 601L771 601L643 601L514 601L386 601L257 601L129 601L0 601Z" fill="#f2d37e"></path><path d="M0 489L129 483L257 539L386 484L514 501L643 541L771 529L900 516L900 601L771 601L643 601L514 601L386 601L257 601L129 601L0 601Z" fill="#f8d168"></path><path d="M0 538L129 541L257 541L386 566L514 551L643 533L771 556L900 539L900 601L771 601L643 601L514 601L386 601L257 601L129 601L0 601Z" fill="#ffcf50"></path></svg>