<svg id="visual" viewBox="0 0 900 600" width="900" height="600" xmlns="http://www.w3.org/2000/svg" xmlns:xlink="http://www.w3.org/1999/xlink" version="1.1"><rect width="900" height="600" fill="#f2d37e"></rect><g><g transform="translate(144 435)"><path d="M99 -31.2C112.5 9.5 96.9 60.7 61.1 87.5C25.4 114.2 -30.5 116.5 -63.9 91.4C-97.3 66.3 -108.2 13.8 -93.8 -28.1C-79.5 -70 -39.7 -101.2 1.5 -101.7C42.7 -102.2 85.4 -71.9 99 -31.2Z" fill="none" stroke="#758359" stroke-width="20"></path></g><g transform="translate(608 107)"><path d="M66.6 -22.2C75.6 5.9 64.6 39.9 42.9 54.8C21.1 69.6 -11.6 65.3 -32.3 49.1C-53 33 -61.7 5.1 -54.3 -20.9C-46.9 -46.8 -23.5 -70.7 2.7 -71.6C28.8 -72.5 57.6 -50.3 66.6 -22.2Z" fill="none" stroke="#758359" stroke-width="20"></path></g><g transform="translate(781 485)"><path d="M53.9 -17.8C61.3 5.1 52.8 33 34.4 46C16.1 58.9 -12 57.1 -31 43.1C-50.1 29.2 -60.1 3.2 -53.4 -18.8C-46.7 -40.9 -23.4 -58.9 0 -58.9C23.3 -58.9 46.6 -40.8 53.9 -17.8Z" fill="none" stroke="#758359" stroke-width="20"></path></g></g></svg>