<svg id="visual" viewBox="0 0 900 600" width="900" height="600" xmlns="http://www.w3.org/2000/svg" xmlns:xlink="http://www.w3.org/1999/xlink" version="1.1"><rect x="0" y="0" width="900" height="600" fill="#626f47"></rect><defs><linearGradient id="grad1_0" x1="33.3%" y1="100%" x2="100%" y2="0%"><stop offset="20%" stop-color="#626f47" stop-opacity="1"></stop><stop offset="80%" stop-color="#626f47" stop-opacity="1"></stop></linearGradient></defs><defs><linearGradient id="grad2_0" x1="0%" y1="100%" x2="66.7%" y2="0%"><stop offset="20%" stop-color="#626f47" stop-opacity="1"></stop><stop offset="80%" stop-color="#626f47" stop-opacity="1"></stop></linearGradient></defs><g transform="translate(900, 600)"><path d="M-324.5 0C-318.4 -23.2 -312.2 -46.5 -305.2 -69.6C-298.1 -92.8 -290.1 -115.9 -274.8 -132.3C-259.5 -148.8 -236.7 -158.5 -225.9 -180.2C-215.2 -201.9 -216.3 -235.4 -202.3 -253.7C-188.3 -272 -159.2 -274.9 -134.5 -279.3C-109.8 -283.7 -89.5 -289.6 -67.9 -297.4C-46.2 -305.1 -23.1 -314.8 0 -324.5L0 0Z" fill="#758359"></path></g><g transform="translate(0, 0)"><path d="M324.5 0C313 22.5 301.5 44.9 294.4 67.2C287.4 89.5 284.7 111.6 277.5 133.6C270.3 155.7 258.6 177.6 240 191.4C221.5 205.2 196.1 210.8 177.1 222C158 233.3 145.2 250.1 129.3 268.5C113.4 286.9 94.3 306.8 72.2 316.4C50.1 326 25.1 325.2 0 324.5L0 0Z" fill="#758359"></path></g></svg>