<svg id="visual" viewBox="0 0 900 600" width="900" height="600" xmlns="http://www.w3.org/2000/svg" xmlns:xlink="http://www.w3.org/1999/xlink" version="1.1"><rect x="0" y="0" width="900" height="600" fill="#758359"></rect><path d="M0 557L75 556L150 550L225 566L300 564L375 556L450 553L525 565L600 555L675 560L750 557L825 565L900 558L900 601L825 601L750 601L675 601L600 601L525 601L450 601L375 601L300 601L225 601L150 601L75 601L0 601Z" fill="#f2d37e"></path><path d="M0 567L75 563L150 563L225 560L300 558L375 570L450 567L525 563L600 571L675 564L750 570L825 569L900 557L900 601L825 601L750 601L675 601L600 601L525 601L450 601L375 601L300 601L225 601L150 601L75 601L0 601Z" fill="#f2d37e"></path><path d="M0 565L75 568L150 573L225 572L300 578L375 578L450 565L525 575L600 571L675 571L750 567L825 576L900 576L900 601L825 601L750 601L675 601L600 601L525 601L450 601L375 601L300 601L225 601L150 601L75 601L0 601Z" fill="#f2d37e"></path><path d="M0 573L75 575L150 572L225 583L300 581L375 577L450 581L525 579L600 573L675 574L750 574L825 572L900 574L900 601L825 601L750 601L675 601L600 601L525 601L450 601L375 601L300 601L225 601L150 601L75 601L0 601Z" fill="#f2d37e"></path><path d="M0 589L75 588L150 581L225 586L300 586L375 589L450 580L525 587L600 589L675 581L750 588L825 586L900 581L900 601L825 601L750 601L675 601L600 601L525 601L450 601L375 601L300 601L225 601L150 601L75 601L0 601Z" fill="#f2d37e"></path><path d="M0 593L75 591L150 589L225 590L300 593L375 586L450 592L525 593L600 587L675 589L750 590L825 594L900 592L900 601L825 601L750 601L675 601L600 601L525 601L450 601L375 601L300 601L225 601L150 601L75 601L0 601Z" fill="#f2d37e"></path></svg>