<svg id="visual" viewBox="0 0 900 600" width="900" height="600" xmlns="http://www.w3.org/2000/svg" xmlns:xlink="http://www.w3.org/1999/xlink" version="1.1"><rect x="0" y="0" width="900" height="600" fill="#626f47"></rect><defs><linearGradient id="grad1_0" x1="33.3%" y1="100%" x2="100%" y2="0%"><stop offset="20%" stop-color="#626f47" stop-opacity="1"></stop><stop offset="80%" stop-color="#626f47" stop-opacity="1"></stop></linearGradient></defs><defs><linearGradient id="grad2_0" x1="0%" y1="100%" x2="66.7%" y2="0%"><stop offset="20%" stop-color="#626f47" stop-opacity="1"></stop><stop offset="80%" stop-color="#626f47" stop-opacity="1"></stop></linearGradient></defs><g transform="translate(900, 600)"><path d="M-270.4 0C-260 -18.4 -249.5 -36.8 -245.7 -56.1C-241.9 -75.4 -244.7 -95.6 -241.5 -116.3C-238.2 -137 -228.9 -158.2 -211.4 -168.6C-194 -179 -168.4 -178.5 -152.8 -191.5C-137.1 -204.6 -131.4 -231.2 -116.7 -242.4C-102 -253.6 -78.4 -249.4 -57.4 -251.5C-36.5 -253.6 -18.2 -262 0 -270.4L0 0Z" fill="#758359"></path></g><g transform="translate(0, 0)"><path d="M270.4 0C248.1 14.9 225.7 29.9 226.2 51.6C226.6 73.4 249.9 102 243.6 117.3C237.4 132.7 201.7 134.8 182.2 145.3C162.6 155.7 159.2 174.5 147.8 185.3C136.3 196.1 116.8 198.9 101.1 209.9C85.4 220.9 73.6 240.1 57.4 251.5C41.2 263 20.6 266.7 0 270.4L0 0Z" fill="#758359"></path></g></svg>