<svg id="visual" viewBox="0 0 900 600" width="900" height="600" xmlns="http://www.w3.org/2000/svg" xmlns:xlink="http://www.w3.org/1999/xlink" version="1.1"><path d="M0 97L82 157L164 109L245 181L327 103L409 97L491 217L573 85L655 127L736 115L818 157L900 193L900 0L818 0L736 0L655 0L573 0L491 0L409 0L327 0L245 0L164 0L82 0L0 0Z" fill="#758359"></path><path d="M0 229L82 433L164 475L245 475L327 397L409 271L491 439L573 355L655 373L736 265L818 367L900 385L900 191L818 155L736 113L655 125L573 83L491 215L409 95L327 101L245 179L164 107L82 155L0 95Z" fill="#5f6a48"></path><path d="M0 601L82 601L164 601L245 601L327 601L409 601L491 601L573 601L655 601L736 601L818 601L900 601L900 383L818 365L736 263L655 371L573 353L491 437L409 269L327 395L245 473L164 473L82 431L0 227Z" fill="#495237"></path></svg>