<svg id="visual" viewBox="0 0 900 600" width="900" height="600" xmlns="http://www.w3.org/2000/svg" xmlns:xlink="http://www.w3.org/1999/xlink" version="1.1"><rect x="0" y="0" width="900" height="600" fill="#758359"></rect><path d="M0 154L21.5 163.2C43 172.3 86 190.7 128.8 190.5C171.7 190.3 214.3 171.7 257.2 177.7C300 183.7 343 214.3 385.8 221C428.7 227.7 471.3 210.3 514.2 207C557 203.7 600 214.3 642.8 222C685.7 229.7 728.3 234.3 771.2 230.2C814 226 857 213 878.5 206.5L900 200L900 0L878.5 0C857 0 814 0 771.2 0C728.3 0 685.7 0 642.8 0C600 0 557 0 514.2 0C471.3 0 428.7 0 385.8 0C343 0 300 0 257.2 0C214.3 0 171.7 0 128.8 0C86 0 43 0 21.5 0L0 0Z" fill="#3f472f"></path><path d="M0 171L21.5 169.7C43 168.3 86 165.7 128.8 158.3C171.7 151 214.3 139 257.2 145.2C300 151.3 343 175.7 385.8 184.7C428.7 193.7 471.3 187.3 514.2 179.8C557 172.3 600 163.7 642.8 159.2C685.7 154.7 728.3 154.3 771.2 149.7C814 145 857 136 878.5 131.5L900 127L900 0L878.5 0C857 0 814 0 771.2 0C728.3 0 685.7 0 642.8 0C600 0 557 0 514.2 0C471.3 0 428.7 0 385.8 0C343 0 300 0 257.2 0C214.3 0 171.7 0 128.8 0C86 0 43 0 21.5 0L0 0Z" fill="#4c5539"></path><path d="M0 117L21.5 119.8C43 122.7 86 128.3 128.8 135.7C171.7 143 214.3 152 257.2 152.7C300 153.3 343 145.7 385.8 136C428.7 126.3 471.3 114.7 514.2 115.7C557 116.7 600 130.3 642.8 129.3C685.7 128.3 728.3 112.7 771.2 111.5C814 110.3 857 123.7 878.5 130.3L900 137L900 0L878.5 0C857 0 814 0 771.2 0C728.3 0 685.7 0 642.8 0C600 0 557 0 514.2 0C471.3 0 428.7 0 385.8 0C343 0 300 0 257.2 0C214.3 0 171.7 0 128.8 0C86 0 43 0 21.5 0L0 0Z" fill="#596443"></path><path d="M0 79L21.5 76.5C43 74 86 69 128.8 70.8C171.7 72.7 214.3 81.3 257.2 83.7C300 86 343 82 385.8 85.3C428.7 88.7 471.3 99.3 514.2 100.7C557 102 600 94 642.8 91.5C685.7 89 728.3 92 771.2 92.7C814 93.3 857 91.7 878.5 90.8L900 90L900 0L878.5 0C857 0 814 0 771.2 0C728.3 0 685.7 0 642.8 0C600 0 557 0 514.2 0C471.3 0 428.7 0 385.8 0C343 0 300 0 257.2 0C214.3 0 171.7 0 128.8 0C86 0 43 0 21.5 0L0 0Z" fill="#67734e"></path><path d="M0 57L21.5 58.8C43 60.7 86 64.3 128.8 60C171.7 55.7 214.3 43.3 257.2 40.5C300 37.7 343 44.3 385.8 45.2C428.7 46 471.3 41 514.2 39.2C557 37.3 600 38.7 642.8 43C685.7 47.3 728.3 54.7 771.2 53.5C814 52.3 857 42.7 878.5 37.8L900 33L900 0L878.5 0C857 0 814 0 771.2 0C728.3 0 685.7 0 642.8 0C600 0 557 0 514.2 0C471.3 0 428.7 0 385.8 0C343 0 300 0 257.2 0C214.3 0 171.7 0 128.8 0C86 0 43 0 21.5 0L0 0Z" fill="#758359"></path></svg>