<svg id="visual" viewBox="0 0 960 540" width="960" height="540" xmlns="http://www.w3.org/2000/svg" xmlns:xlink="http://www.w3.org/1999/xlink" version="1.1"><rect x="0" y="0" width="960" height="540" fill="#ffc50f"></rect><path d="M0 281L137 267L274 262L411 219L549 202L686 223L823 226L960 300L960 541L823 541L686 541L549 541L411 541L274 541L137 541L0 541Z" fill="#626f47"></path><path d="M0 347L137 361L274 291L411 292L549 277L686 274L823 316L960 285L960 541L823 541L686 541L549 541L411 541L274 541L137 541L0 541Z" fill="#6f7e52"></path><path d="M0 375L137 400L274 390L411 401L549 389L686 310L823 391L960 398L960 541L823 541L686 541L549 541L411 541L274 541L137 541L0 541Z" fill="#7d8d5d"></path><path d="M0 383L137 409L274 429L411 431L549 380L686 434L823 418L960 420L960 541L823 541L686 541L549 541L411 541L274 541L137 541L0 541Z" fill="#8b9d69"></path><path d="M0 434L137 471L274 473L411 447L549 500L686 440L823 469L960 482L960 541L823 541L686 541L549 541L411 541L274 541L137 541L0 541Z" fill="#9aad75"></path></svg>