<svg id="visual" viewBox="0 0 960 540" width="960" height="540" xmlns="http://www.w3.org/2000/svg" xmlns:xlink="http://www.w3.org/1999/xlink" version="1.1"><rect x="0" y="0" width="960" height="540" fill="#FEFAE0"></rect><defs><linearGradient id="grad1_0" x1="43.8%" y1="0%" x2="100%" y2="100%"><stop offset="14.444444444444446%" stop-color="#fefae0" stop-opacity="1"></stop><stop offset="85.55555555555554%" stop-color="#fefae0" stop-opacity="1"></stop></linearGradient></defs><defs><linearGradient id="grad2_0" x1="0%" y1="0%" x2="56.3%" y2="100%"><stop offset="14.444444444444446%" stop-color="#fefae0" stop-opacity="1"></stop><stop offset="85.55555555555554%" stop-color="#fefae0" stop-opacity="1"></stop></linearGradient></defs><g transform="translate(960, 0)"><path d="M0 243C-13.4 219.6 -26.8 196.3 -43.6 191.1C-60.5 185.9 -80.8 198.9 -94.2 195.5C-107.5 192.1 -113.9 172.2 -129.7 162.6C-145.4 153.1 -170.5 153.9 -177.5 141.5C-184.4 129.2 -173.1 103.6 -182.9 88.1C-192.6 72.6 -223.4 67.1 -236.9 54.1C-250.4 41.1 -246.7 20.5 -243 0L0 0Z" fill="#626F47"></path></g><g transform="translate(0, 540)"><path d="M0 -243C16.8 -235.8 33.5 -228.6 51.6 -226.2C69.7 -223.7 89.2 -226 105.4 -218.9C121.7 -211.9 134.8 -195.6 142.2 -178.3C149.5 -160.9 151 -142.5 164.2 -130.9C177.4 -119.4 202.4 -114.8 211.7 -102C221.1 -89.1 214.8 -68 217.4 -49.6C220 -31.3 231.5 -15.6 243 0L0 0Z" fill="#626F47"></path></g></svg>