<svg xmlns="http://www.w3.org/2000/svg" version="1.1" xmlns:xlink="http://www.w3.org/1999/xlink" xmlns:svgjs="http://svgjs.dev/svgjs" width="1440" height="560" preserveAspectRatio="none" viewBox="0 0 1440 560"><g mask="url(&quot;#SvgjsMask1037&quot;)" fill="none"><path d="M686 439L685 691" stroke-width="8" stroke="url(&quot;#SvgjsLinearGradient1038&quot;)" stroke-linecap="round" class="Down"></path><path d="M872 35L871 -116" stroke-width="10" stroke="url(&quot;#SvgjsLinearGradient1039&quot;)" stroke-linecap="round" class="Up"></path><path d="M99 248L98 626" stroke-width="10" stroke="url(&quot;#SvgjsLinearGradient1038&quot;)" stroke-linecap="round" class="Down"></path><path d="M639 224L638 -144" stroke-width="8" stroke="url(&quot;#SvgjsLinearGradient1038&quot;)" stroke-linecap="round" class="Down"></path><path d="M1385 528L1384 304" stroke-width="8" stroke="url(&quot;#SvgjsLinearGradient1040&quot;)" stroke-linecap="round" class="Down"></path><path d="M846 189L845 386" stroke-width="10" stroke="url(&quot;#SvgjsLinearGradient1040&quot;)" stroke-linecap="round" class="Down"></path><path d="M385 60L384 313" stroke-width="10" stroke="url(&quot;#SvgjsLinearGradient1041&quot;)" stroke-linecap="round" class="Up"></path><path d="M728 281L727 -37" stroke-width="6" stroke="url(&quot;#SvgjsLinearGradient1041&quot;)" stroke-linecap="round" class="Up"></path><path d="M686 46L685 -372" stroke-width="8" stroke="url(&quot;#SvgjsLinearGradient1040&quot;)" stroke-linecap="round" class="Down"></path><path d="M537 11L536 151" stroke-width="10" stroke="url(&quot;#SvgjsLinearGradient1040&quot;)" stroke-linecap="round" class="Down"></path><path d="M1044 432L1043 57" stroke-width="10" stroke="url(&quot;#SvgjsLinearGradient1040&quot;)" stroke-linecap="round" class="Down"></path><path d="M748 220L747 -1" stroke-width="6" stroke="url(&quot;#SvgjsLinearGradient1039&quot;)" stroke-linecap="round" class="Up"></path><path d="M1432 384L1431 707" stroke-width="8" stroke="url(&quot;#SvgjsLinearGradient1041&quot;)" stroke-linecap="round" class="Up"></path><path d="M1333 411L1332 741" stroke-width="8" stroke="url(&quot;#SvgjsLinearGradient1040&quot;)" stroke-linecap="round" class="Down"></path><path d="M518 442L517 134" stroke-width="10" stroke="url(&quot;#SvgjsLinearGradient1038&quot;)" stroke-linecap="round" class="Down"></path><path d="M115 128L114 -165" stroke-width="8" stroke="url(&quot;#SvgjsLinearGradient1041&quot;)" stroke-linecap="round" class="Up"></path><path d="M750 477L749 237" stroke-width="8" stroke="url(&quot;#SvgjsLinearGradient1038&quot;)" stroke-linecap="round" class="Down"></path><path d="M735 538L734 187" stroke-width="10" stroke="url(&quot;#SvgjsLinearGradient1040&quot;)" stroke-linecap="round" class="Down"></path><path d="M37 14L36 221" stroke-width="8" stroke="url(&quot;#SvgjsLinearGradient1041&quot;)" stroke-linecap="round" class="Up"></path><path d="M913 147L912 374" stroke-width="6" stroke="url(&quot;#SvgjsLinearGradient1040&quot;)" stroke-linecap="round" class="Down"></path><path d="M548 330L547 609" stroke-width="10" stroke="url(&quot;#SvgjsLinearGradient1040&quot;)" stroke-linecap="round" class="Down"></path><path d="M7 192L6 471" stroke-width="6" stroke="url(&quot;#SvgjsLinearGradient1040&quot;)" stroke-linecap="round" class="Down"></path><path d="M114 130L113 304" stroke-width="10" stroke="url(&quot;#SvgjsLinearGradient1038&quot;)" stroke-linecap="round" class="Down"></path><path d="M930 278L929 482" stroke-width="10" stroke="url(&quot;#SvgjsLinearGradient1041&quot;)" stroke-linecap="round" class="Up"></path><path d="M761 172L760 390" stroke-width="8" stroke="url(&quot;#SvgjsLinearGradient1038&quot;)" stroke-linecap="round" class="Down"></path><path d="M1298 424L1297 210" stroke-width="6" stroke="url(&quot;#SvgjsLinearGradient1041&quot;)" stroke-linecap="round" class="Up"></path><path d="M888 368L887 140" stroke-width="8" stroke="url(&quot;#SvgjsLinearGradient1039&quot;)" stroke-linecap="round" class="Up"></path><path d="M1022 549L1021 407" stroke-width="8" stroke="url(&quot;#SvgjsLinearGradient1038&quot;)" stroke-linecap="round" class="Down"></path><path d="M804 444L803 175" stroke-width="6" stroke="url(&quot;#SvgjsLinearGradient1041&quot;)" stroke-linecap="round" class="Up"></path><path d="M1246 416L1245 247" stroke-width="10" stroke="url(&quot;#SvgjsLinearGradient1040&quot;)" stroke-linecap="round" class="Down"></path><path d="M1368 553L1367 867" stroke-width="8" stroke="url(&quot;#SvgjsLinearGradient1041&quot;)" stroke-linecap="round" class="Up"></path><path d="M765 336L764 627" stroke-width="6" stroke="url(&quot;#SvgjsLinearGradient1039&quot;)" stroke-linecap="round" class="Up"></path><path d="M1119 59L1118 219" stroke-width="8" stroke="url(&quot;#SvgjsLinearGradient1040&quot;)" stroke-linecap="round" class="Down"></path><path d="M1098 334L1097 13" stroke-width="8" stroke="url(&quot;#SvgjsLinearGradient1040&quot;)" stroke-linecap="round" class="Down"></path><path d="M1388 262L1387 509" stroke-width="6" stroke="url(&quot;#SvgjsLinearGradient1040&quot;)" stroke-linecap="round" class="Down"></path><path d="M335 182L334 414" stroke-width="10" stroke="url(&quot;#SvgjsLinearGradient1041&quot;)" stroke-linecap="round" class="Up"></path></g><defs><mask id="SvgjsMask1037"><rect width="1440" height="560" fill="#ffffff"></rect></mask><linearGradient x1="0%" y1="0%" x2="0%" y2="100%" id="SvgjsLinearGradient1038"><stop stop-color="rgba(255, 239, 200, 0)" offset="0"></stop><stop stop-color="rgba(255, 239, 200, 1)" offset="1"></stop></linearGradient><linearGradient x1="0%" y1="100%" x2="0%" y2="0%" id="SvgjsLinearGradient1039"><stop stop-color="rgba(255, 239, 200, 0)" offset="0"></stop><stop stop-color="rgba(255, 239, 200, 1)" offset="1"></stop></linearGradient><linearGradient x1="0%" y1="0%" x2="0%" y2="100%" id="SvgjsLinearGradient1040"><stop stop-color="rgba(255, 207, 80, 0)" offset="0"></stop><stop stop-color="rgba(255, 207, 80, 1)" offset="1"></stop></linearGradient><linearGradient x1="0%" y1="100%" x2="0%" y2="0%" id="SvgjsLinearGradient1041"><stop stop-color="rgba(255, 207, 80, 0)" offset="0"></stop><stop stop-color="rgba(255, 207, 80, 1)" offset="1"></stop></linearGradient></defs></svg>