<svg id="visual" viewBox="0 0 960 540" width="960" height="540" xmlns="http://www.w3.org/2000/svg" xmlns:xlink="http://www.w3.org/1999/xlink" version="1.1"><rect x="0" y="0" width="960" height="540" fill="#ffc50f"></rect><path d="M0 177L80 177L80 148L160 148L160 93L240 93L240 142L320 142L320 193L400 193L400 87L480 87L480 182L560 182L560 162L640 162L640 129L720 129L720 87L800 87L800 199L880 199L880 146L960 146L960 179L960 541L960 541L880 541L880 541L800 541L800 541L720 541L720 541L640 541L640 541L560 541L560 541L480 541L480 541L400 541L400 541L320 541L320 541L240 541L240 541L160 541L160 541L80 541L80 541L0 541Z" fill="#99ad73"></path><path d="M0 275L80 275L80 199L160 199L160 249L240 249L240 210L320 210L320 261L400 261L400 238L480 238L480 198L560 198L560 253L640 253L640 247L720 247L720 219L800 219L800 174L880 174L880 178L960 178L960 244L960 541L960 541L880 541L880 541L800 541L800 541L720 541L720 541L640 541L640 541L560 541L560 541L480 541L480 541L400 541L400 541L320 541L320 541L240 541L240 541L160 541L160 541L80 541L80 541L0 541Z" fill="#768557"></path><path d="M0 264L80 264L80 281L160 281L160 313L240 313L240 251L320 251L320 281L400 281L400 350L480 350L480 262L560 262L560 259L640 259L640 248L720 248L720 248L800 248L800 306L880 306L880 346L960 346L960 338L960 541L960 541L880 541L880 541L800 541L800 541L720 541L720 541L640 541L640 541L560 541L560 541L480 541L480 541L400 541L400 541L320 541L320 541L240 541L240 541L160 541L160 541L80 541L80 541L0 541Z" fill="#626f47"></path><path d="M0 366L80 366L80 398L160 398L160 370L240 370L240 380L320 380L320 328L400 328L400 410L480 410L480 341L560 341L560 415L640 415L640 393L720 393L720 363L800 363L800 420L880 420L880 403L960 403L960 339L960 541L960 541L880 541L880 541L800 541L800 541L720 541L720 541L640 541L640 541L560 541L560 541L480 541L480 541L400 541L400 541L320 541L320 541L240 541L240 541L160 541L160 541L80 541L80 541L0 541Z" fill="#768557"></path><path d="M0 427L80 427L80 415L160 415L160 432L240 432L240 484L320 484L320 414L400 414L400 456L480 456L480 407L560 407L560 434L640 434L640 418L720 418L720 447L800 447L800 431L880 431L880 473L960 473L960 481L960 541L960 541L880 541L880 541L800 541L800 541L720 541L720 541L640 541L640 541L560 541L560 541L480 541L480 541L400 541L400 541L320 541L320 541L240 541L240 541L160 541L160 541L80 541L80 541L0 541Z" fill="#99ad73"></path></svg>