<svg id="visual" viewBox="0 0 900 600" width="900" height="600" xmlns="http://www.w3.org/2000/svg" xmlns:xlink="http://www.w3.org/1999/xlink" version="1.1"><rect x="0" y="0" width="900" height="600" fill="#758359"></rect><path d="M0 508L90 520L180 500L270 534L360 510L450 501L540 504L630 516L720 498L810 514L900 522L900 601L810 601L720 601L630 601L540 601L450 601L360 601L270 601L180 601L90 601L0 601Z" fill="#e5d5a8"></path><path d="M0 534L90 513L180 523L270 534L360 522L450 511L540 540L630 529L720 537L810 544L900 520L900 601L810 601L720 601L630 601L540 601L450 601L360 601L270 601L180 601L90 601L0 601Z" fill="#e9d49a"></path><path d="M0 531L90 540L180 537L270 542L360 537L450 547L540 534L630 538L720 528L810 535L900 541L900 601L810 601L720 601L630 601L540 601L450 601L360 601L270 601L180 601L90 601L0 601Z" fill="#eed48c"></path><path d="M0 555L90 556L180 563L270 539L360 545L450 541L540 559L630 560L720 555L810 556L900 539L900 601L810 601L720 601L630 601L540 601L450 601L360 601L270 601L180 601L90 601L0 601Z" fill="#f2d37e"></path><path d="M0 554L90 563L180 555L270 556L360 557L450 554L540 554L630 570L720 558L810 556L900 567L900 601L810 601L720 601L630 601L540 601L450 601L360 601L270 601L180 601L90 601L0 601Z" fill="#f6d26f"></path><path d="M0 578L90 580L180 576L270 576L360 578L450 565L540 565L630 571L720 571L810 565L900 582L900 601L810 601L720 601L630 601L540 601L450 601L360 601L270 601L180 601L90 601L0 601Z" fill="#fbd060"></path><path d="M0 578L90 583L180 580L270 583L360 581L450 586L540 589L630 581L720 579L810 578L900 589L900 601L810 601L720 601L630 601L540 601L450 601L360 601L270 601L180 601L90 601L0 601Z" fill="#ffcf50"></path></svg>