<svg id="visual" viewBox="0 0 900 600" width="900" height="600" xmlns="http://www.w3.org/2000/svg" xmlns:xlink="http://www.w3.org/1999/xlink" version="1.1"><rect x="0" y="0" width="900" height="600" fill="#758359"></rect><path d="M0 463L90 481L180 450L270 501L360 465L450 451L540 456L630 475L720 448L810 472L900 484L900 601L810 601L720 601L630 601L540 601L450 601L360 601L270 601L180 601L90 601L0 601Z" fill="#e5d5a8"></path><path d="M0 502L90 471L180 484L270 502L360 484L450 467L540 511L630 494L720 505L810 517L900 480L900 601L810 601L720 601L630 601L540 601L450 601L360 601L270 601L180 601L90 601L0 601Z" fill="#e9d49a"></path><path d="M0 497L90 510L180 505L270 513L360 506L450 521L540 501L630 507L720 492L810 502L900 512L900 601L810 601L720 601L630 601L540 601L450 601L360 601L270 601L180 601L90 601L0 601Z" fill="#eed48c"></path><path d="M0 533L90 535L180 545L270 509L360 519L450 511L540 540L630 540L720 533L810 534L900 509L900 601L810 601L720 601L630 601L540 601L450 601L360 601L270 601L180 601L90 601L0 601Z" fill="#f2d37e"></path><path d="M0 532L90 545L180 533L270 534L360 536L450 531L540 532L630 555L720 537L810 534L900 552L900 601L810 601L720 601L630 601L540 601L450 601L360 601L270 601L180 601L90 601L0 601Z" fill="#f6d26f"></path><path d="M0 567L90 571L180 565L270 565L360 567L450 548L540 547L630 557L720 557L810 548L900 574L900 601L810 601L720 601L630 601L540 601L450 601L360 601L270 601L180 601L90 601L0 601Z" fill="#fbd060"></path><path d="M0 567L90 576L180 571L270 576L360 572L450 579L540 583L630 571L720 568L810 568L900 584L900 601L810 601L720 601L630 601L540 601L450 601L360 601L270 601L180 601L90 601L0 601Z" fill="#ffcf50"></path></svg>