<svg id="visual" viewBox="0 0 960 540" width="960" height="540" xmlns="http://www.w3.org/2000/svg" xmlns:xlink="http://www.w3.org/1999/xlink" version="1.1"><rect x="0" y="0" width="960" height="540" fill="#fffbe0"></rect><path d="M0 357L22.8 362.2C45.7 367.3 91.3 377.7 137 381.8C182.7 386 228.3 384 274 383C319.7 382 365.3 382 411.2 383C457 384 503 386 548.8 388.8C594.7 391.7 640.3 395.3 686 393.8C731.7 392.3 777.3 385.7 823 377.8C868.7 370 914.3 361 937.2 356.5L960 352L960 541L937.2 541C914.3 541 868.7 541 823 541C777.3 541 731.7 541 686 541C640.3 541 594.7 541 548.8 541C503 541 457 541 411.2 541C365.3 541 319.7 541 274 541C228.3 541 182.7 541 137 541C91.3 541 45.7 541 22.8 541L0 541Z" fill="#c4c0a9"></path><path d="M0 402L22.8 397.3C45.7 392.7 91.3 383.3 137 382.7C182.7 382 228.3 390 274 391.5C319.7 393 365.3 388 411.2 384.8C457 381.7 503 380.3 548.8 385C594.7 389.7 640.3 400.3 686 406.5C731.7 412.7 777.3 414.3 823 407.3C868.7 400.3 914.3 384.7 937.2 376.8L960 369L960 541L937.2 541C914.3 541 868.7 541 823 541C777.3 541 731.7 541 686 541C640.3 541 594.7 541 548.8 541C503 541 457 541 411.2 541C365.3 541 319.7 541 274 541C228.3 541 182.7 541 137 541C91.3 541 45.7 541 22.8 541L0 541Z" fill="#dad6bd"></path><path d="M0 428L22.8 426.7C45.7 425.3 91.3 422.7 137 421.2C182.7 419.7 228.3 419.3 274 419.5C319.7 419.7 365.3 420.3 411.2 423.8C457 427.3 503 433.7 548.8 430.7C594.7 427.7 640.3 415.3 686 411.5C731.7 407.7 777.3 412.3 823 416.2C868.7 420 914.3 423 937.2 424.5L960 426L960 541L937.2 541C914.3 541 868.7 541 823 541C777.3 541 731.7 541 686 541C640.3 541 594.7 541 548.8 541C503 541 457 541 411.2 541C365.3 541 319.7 541 274 541C228.3 541 182.7 541 137 541C91.3 541 45.7 541 22.8 541L0 541Z" fill="#e8e4c9"></path><path d="M0 467L22.8 467C45.7 467 91.3 467 137 465.3C182.7 463.7 228.3 460.3 274 458.8C319.7 457.3 365.3 457.7 411.2 458.3C457 459 503 460 548.8 463.2C594.7 466.3 640.3 471.7 686 476C731.7 480.3 777.3 483.7 823 483.8C868.7 484 914.3 481 937.2 479.5L960 478L960 541L937.2 541C914.3 541 868.7 541 823 541C777.3 541 731.7 541 686 541C640.3 541 594.7 541 548.8 541C503 541 457 541 411.2 541C365.3 541 319.7 541 274 541C228.3 541 182.7 541 137 541C91.3 541 45.7 541 22.8 541L0 541Z" fill="#dad6bd"></path><path d="M0 502L22.8 502.3C45.7 502.7 91.3 503.3 137 500.5C182.7 497.7 228.3 491.3 274 486.3C319.7 481.3 365.3 477.7 411.2 478.2C457 478.7 503 483.3 548.8 489.2C594.7 495 640.3 502 686 500.3C731.7 498.7 777.3 488.3 823 483.3C868.7 478.3 914.3 478.7 937.2 478.8L960 479L960 541L937.2 541C914.3 541 868.7 541 823 541C777.3 541 731.7 541 686 541C640.3 541 594.7 541 548.8 541C503 541 457 541 411.2 541C365.3 541 319.7 541 274 541C228.3 541 182.7 541 137 541C91.3 541 45.7 541 22.8 541L0 541Z" fill="#c4c0a9"></path></svg>