<svg id="visual" viewBox="0 0 960 540" width="960" height="540" xmlns="http://www.w3.org/2000/svg" xmlns:xlink="http://www.w3.org/1999/xlink" version="1.1"><rect x="0" y="0" width="960" height="540" fill="#fffbe0"></rect><path d="M0 181L22.8 175.8C45.7 170.7 91.3 160.3 137 156.2C182.7 152 228.3 154 274 155C319.7 156 365.3 156 411.2 155C457 154 503 152 548.8 149.2C594.7 146.3 640.3 142.7 686 144.2C731.7 145.7 777.3 152.3 823 160.2C868.7 168 914.3 177 937.2 181.5L960 186L960 0L937.2 0C914.3 0 868.7 0 823 0C777.3 0 731.7 0 686 0C640.3 0 594.7 0 548.8 0C503 0 457 0 411.2 0C365.3 0 319.7 0 274 0C228.3 0 182.7 0 137 0C91.3 0 45.7 0 22.8 0L0 0Z" fill="#c4c0a9"></path><path d="M0 136L22.8 140.7C45.7 145.3 91.3 154.7 137 155.3C182.7 156 228.3 148 274 146.5C319.7 145 365.3 150 411.2 153.2C457 156.3 503 157.7 548.8 153C594.7 148.3 640.3 137.7 686 131.5C731.7 125.3 777.3 123.7 823 130.7C868.7 137.7 914.3 153.3 937.2 161.2L960 169L960 0L937.2 0C914.3 0 868.7 0 823 0C777.3 0 731.7 0 686 0C640.3 0 594.7 0 548.8 0C503 0 457 0 411.2 0C365.3 0 319.7 0 274 0C228.3 0 182.7 0 137 0C91.3 0 45.7 0 22.8 0L0 0Z" fill="#dad6bd"></path><path d="M0 110L22.8 111.3C45.7 112.7 91.3 115.3 137 116.8C182.7 118.3 228.3 118.7 274 118.5C319.7 118.3 365.3 117.7 411.2 114.2C457 110.7 503 104.3 548.8 107.3C594.7 110.3 640.3 122.7 686 126.5C731.7 130.3 777.3 125.7 823 121.8C868.7 118 914.3 115 937.2 113.5L960 112L960 0L937.2 0C914.3 0 868.7 0 823 0C777.3 0 731.7 0 686 0C640.3 0 594.7 0 548.8 0C503 0 457 0 411.2 0C365.3 0 319.7 0 274 0C228.3 0 182.7 0 137 0C91.3 0 45.7 0 22.8 0L0 0Z" fill="#e8e4c9"></path><path d="M0 71L22.8 71C45.7 71 91.3 71 137 72.7C182.7 74.3 228.3 77.7 274 79.2C319.7 80.7 365.3 80.3 411.2 79.7C457 79 503 78 548.8 74.8C594.7 71.7 640.3 66.3 686 62C731.7 57.7 777.3 54.3 823 54.2C868.7 54 914.3 57 937.2 58.5L960 60L960 0L937.2 0C914.3 0 868.7 0 823 0C777.3 0 731.7 0 686 0C640.3 0 594.7 0 548.8 0C503 0 457 0 411.2 0C365.3 0 319.7 0 274 0C228.3 0 182.7 0 137 0C91.3 0 45.7 0 22.8 0L0 0Z" fill="#dad6bd"></path><path d="M0 36L22.8 35.7C45.7 35.3 91.3 34.7 137 37.5C182.7 40.3 228.3 46.7 274 51.7C319.7 56.7 365.3 60.3 411.2 59.8C457 59.3 503 54.7 548.8 48.8C594.7 43 640.3 36 686 37.7C731.7 39.3 777.3 49.7 823 54.7C868.7 59.7 914.3 59.3 937.2 59.2L960 59L960 0L937.2 0C914.3 0 868.7 0 823 0C777.3 0 731.7 0 686 0C640.3 0 594.7 0 548.8 0C503 0 457 0 411.2 0C365.3 0 319.7 0 274 0C228.3 0 182.7 0 137 0C91.3 0 45.7 0 22.8 0L0 0Z" fill="#c4c0a9"></path></svg>