<svg id="visual" viewBox="0 0 960 540" width="960" height="540" xmlns="http://www.w3.org/2000/svg" xmlns:xlink="http://www.w3.org/1999/xlink" version="1.1"><rect x="0" y="0" width="960" height="540" fill="#ffc50f"></rect><path d="M0 213L137 97L274 130L411 213L549 142L686 165L823 136L960 144L960 541L823 541L686 541L549 541L411 541L274 541L137 541L0 541Z" fill="#626f47"></path><path d="M0 185L137 215L274 273L411 161L549 243L686 145L823 236L960 244L960 541L823 541L686 541L549 541L411 541L274 541L137 541L0 541Z" fill="#69764c"></path><path d="M0 292L137 272L274 257L411 270L549 217L686 229L823 284L960 197L960 541L823 541L686 541L549 541L411 541L274 541L137 541L0 541Z" fill="#6f7e52"></path><path d="M0 260L137 261L274 345L411 254L549 336L686 351L823 345L960 251L960 541L823 541L686 541L549 541L411 541L274 541L137 541L0 541Z" fill="#768557"></path><path d="M0 290L137 372L274 314L411 325L549 369L686 332L823 348L960 314L960 541L823 541L686 541L549 541L411 541L274 541L137 541L0 541Z" fill="#7d8d5d"></path><path d="M0 352L137 341L274 378L411 408L549 336L686 414L823 356L960 405L960 541L823 541L686 541L549 541L411 541L274 541L137 541L0 541Z" fill="#849563"></path><path d="M0 451L137 447L274 450L411 377L549 377L686 390L823 391L960 447L960 541L823 541L686 541L549 541L411 541L274 541L137 541L0 541Z" fill="#8b9d69"></path><path d="M0 453L137 454L274 473L411 434L549 432L686 437L823 439L960 473L960 541L823 541L686 541L549 541L411 541L274 541L137 541L0 541Z" fill="#93a56f"></path><path d="M0 462L137 478L274 484L411 511L549 477L686 480L823 496L960 474L960 541L823 541L686 541L549 541L411 541L274 541L137 541L0 541Z" fill="#9aad75"></path></svg>