<svg id="visual" viewBox="0 0 900 600" width="900" height="600" xmlns="http://www.w3.org/2000/svg" xmlns:xlink="http://www.w3.org/1999/xlink" version="1.1"><path d="M0 61L82 127L164 79L245 157L327 85L409 91L491 151L573 139L655 163L736 151L818 91L900 85L900 0L818 0L736 0L655 0L573 0L491 0L409 0L327 0L245 0L164 0L82 0L0 0Z" fill="#758359"></path><path d="M0 289L82 343L164 193L245 247L327 175L409 361L491 265L573 313L655 367L736 235L818 355L900 319L900 83L818 89L736 149L655 161L573 137L491 149L409 89L327 83L245 155L164 77L82 125L0 59Z" fill="#6a7650"></path><path d="M0 373L82 433L164 271L245 295L327 277L409 457L491 301L573 385L655 409L736 289L818 391L900 379L900 317L818 353L736 233L655 365L573 311L491 263L409 359L327 173L245 245L164 191L82 341L0 287Z" fill="#5f6a48"></path><path d="M0 493L82 517L164 313L245 397L327 355L409 499L491 385L573 469L655 457L736 385L818 481L900 451L900 377L818 389L736 287L655 407L573 383L491 299L409 455L327 275L245 293L164 269L82 431L0 371Z" fill="#545e3f"></path><path d="M0 601L82 601L164 601L245 601L327 601L409 601L491 601L573 601L655 601L736 601L818 601L900 601L900 449L818 479L736 383L655 455L573 467L491 383L409 497L327 353L245 395L164 311L82 515L0 491Z" fill="#495237"></path></svg>