<svg id="visual" viewBox="0 0 900 600" width="900" height="600" xmlns="http://www.w3.org/2000/svg" xmlns:xlink="http://www.w3.org/1999/xlink" version="1.1"><rect x="0" y="0" width="900" height="600" fill="#758359"></rect><path d="M0 565L129 566L257 558L386 558L514 560L643 557L771 561L900 566L900 601L771 601L643 601L514 601L386 601L257 601L129 601L0 601Z" fill="#f2d37e"></path><path d="M0 568L129 569L257 566L386 567L514 571L643 572L771 566L900 574L900 601L771 601L643 601L514 601L386 601L257 601L129 601L0 601Z" fill="#f2d37e"></path><path d="M0 578L129 576L257 580L386 575L514 582L643 574L771 575L900 580L900 601L771 601L643 601L514 601L386 601L257 601L129 601L0 601Z" fill="#f2d37e"></path><path d="M0 586L129 585L257 590L386 585L514 584L643 588L771 586L900 589L900 601L771 601L643 601L514 601L386 601L257 601L129 601L0 601Z" fill="#f2d37e"></path></svg>