<svg id="visual" viewBox="0 0 900 600" width="900" height="600" xmlns="http://www.w3.org/2000/svg" xmlns:xlink="http://www.w3.org/1999/xlink" version="1.1"><rect x="0" y="0" width="900" height="600" fill="#626f47"></rect><path d="M0 199L21.5 197.7C43 196.3 86 193.7 128.8 181.5C171.7 169.3 214.3 147.7 257.2 131.8C300 116 343 106 385.8 106.8C428.7 107.7 471.3 119.3 514.2 135.3C557 151.3 600 171.7 642.8 169.7C685.7 167.7 728.3 143.3 771.2 125.5C814 107.7 857 96.3 878.5 90.7L900 85L900 0L878.5 0C857 0 814 0 771.2 0C728.3 0 685.7 0 642.8 0C600 0 557 0 514.2 0C471.3 0 428.7 0 385.8 0C343 0 300 0 257.2 0C214.3 0 171.7 0 128.8 0C86 0 43 0 21.5 0L0 0Z" fill="#758359" stroke-linecap="round" stroke-linejoin="miter"></path></svg>