<svg id="visual" viewBox="0 0 960 540" width="960" height="540" xmlns="http://www.w3.org/2000/svg" xmlns:xlink="http://www.w3.org/1999/xlink" version="1.1"><rect x="0" y="0" width="960" height="540" fill="#758359"></rect><path d="M0 509L80 498L160 505L240 499L320 505L400 505L480 506L560 495L640 499L720 500L800 509L880 499L960 505L960 541L880 541L800 541L720 541L640 541L560 541L480 541L400 541L320 541L240 541L160 541L80 541L0 541Z" fill="#e0a70a"></path><path d="M0 511L80 502L160 501L240 507L320 512L400 512L480 505L560 506L640 507L720 508L800 511L880 509L960 504L960 541L880 541L800 541L720 541L640 541L560 541L480 541L400 541L320 541L240 541L160 541L80 541L0 541Z" fill="#e4b02d"></path><path d="M0 514L80 515L160 517L240 512L320 517L400 519L480 512L560 519L640 516L720 510L800 512L880 512L960 519L960 541L880 541L800 541L720 541L640 541L560 541L480 541L400 541L320 541L240 541L160 541L80 541L0 541Z" fill="#e7b944"></path><path d="M0 522L80 516L160 518L240 517L320 519L400 515L480 515L560 514L640 521L720 515L800 523L880 518L960 516L960 541L880 541L800 541L720 541L640 541L560 541L480 541L400 541L320 541L240 541L160 541L80 541L0 541Z" fill="#ebc158"></path><path d="M0 527L80 525L160 522L240 524L320 523L400 530L480 526L560 528L640 521L720 528L800 530L880 529L960 527L960 541L880 541L800 541L720 541L640 541L560 541L480 541L400 541L320 541L240 541L160 541L80 541L0 541Z" fill="#eeca6b"></path><path d="M0 534L80 533L160 532L240 528L320 529L400 528L480 530L560 532L640 531L720 529L800 531L880 532L960 529L960 541L880 541L800 541L720 541L640 541L560 541L480 541L400 541L320 541L240 541L160 541L80 541L0 541Z" fill="#f2d37e"></path></svg>