<svg id="visual" viewBox="0 0 960 540" width="960" height="540" xmlns="http://www.w3.org/2000/svg" xmlns:xlink="http://www.w3.org/1999/xlink" version="1.1"><rect x="0" y="0" width="960" height="540" fill="#ffc50f"></rect><path d="M0 209L137 287L274 257L411 278L549 229L686 277L823 250L960 186L960 0L823 0L686 0L549 0L411 0L274 0L137 0L0 0Z" fill="#626f47"></path><path d="M0 184L137 201L274 267L411 186L549 166L686 183L823 213L960 171L960 0L823 0L686 0L549 0L411 0L274 0L137 0L0 0Z" fill="#69764c"></path><path d="M0 191L137 223L274 178L411 222L549 191L686 178L823 197L960 215L960 0L823 0L686 0L549 0L411 0L274 0L137 0L0 0Z" fill="#6f7e52"></path><path d="M0 170L137 165L274 205L411 124L549 170L686 175L823 175L960 179L960 0L823 0L686 0L549 0L411 0L274 0L137 0L0 0Z" fill="#768557"></path><path d="M0 161L137 138L274 179L411 136L549 111L686 135L823 122L960 171L960 0L823 0L686 0L549 0L411 0L274 0L137 0L0 0Z" fill="#7d8d5d"></path><path d="M0 148L137 136L274 98L411 130L549 98L686 108L823 97L960 97L960 0L823 0L686 0L549 0L411 0L274 0L137 0L0 0Z" fill="#849563"></path><path d="M0 86L137 67L274 81L411 94L549 88L686 119L823 99L960 116L960 0L823 0L686 0L549 0L411 0L274 0L137 0L0 0Z" fill="#8b9d69"></path><path d="M0 82L137 51L274 87L411 45L549 54L686 73L823 75L960 39L960 0L823 0L686 0L549 0L411 0L274 0L137 0L0 0Z" fill="#93a56f"></path><path d="M0 51L137 28L274 39L411 55L549 24L686 22L823 30L960 36L960 0L823 0L686 0L549 0L411 0L274 0L137 0L0 0Z" fill="#9aad75"></path></svg>