<svg id="visual" viewBox="0 0 900 600" width="900" height="600" xmlns="http://www.w3.org/2000/svg" xmlns:xlink="http://www.w3.org/1999/xlink" version="1.1"><rect x="0" y="0" width="900" height="600" fill="#758359"></rect><path d="M0 518L129 529L257 502L386 522L514 536L643 521L771 496L900 507L900 601L771 601L643 601L514 601L386 601L257 601L129 601L0 601Z" fill="#f2d37e"></path><path d="M0 505L129 532L257 506L386 516L514 539L643 525L771 524L900 540L900 601L771 601L643 601L514 601L386 601L257 601L129 601L0 601Z" fill="#f2d37e"></path><path d="M0 526L129 537L257 545L386 522L514 525L643 527L771 533L900 544L900 601L771 601L643 601L514 601L386 601L257 601L129 601L0 601Z" fill="#f2d37e"></path><path d="M0 533L129 543L257 558L386 539L514 540L643 532L771 549L900 530L900 601L771 601L643 601L514 601L386 601L257 601L129 601L0 601Z" fill="#f2d37e"></path><path d="M0 558L129 548L257 563L386 556L514 543L643 539L771 546L900 559L900 601L771 601L643 601L514 601L386 601L257 601L129 601L0 601Z" fill="#f2d37e"></path><path d="M0 562L129 565L257 551L386 558L514 551L643 561L771 571L900 568L900 601L771 601L643 601L514 601L386 601L257 601L129 601L0 601Z" fill="#f2d37e"></path><path d="M0 565L129 559L257 560L386 576L514 560L643 578L771 579L900 576L900 601L771 601L643 601L514 601L386 601L257 601L129 601L0 601Z" fill="#f2d37e"></path><path d="M0 579L129 574L257 576L386 579L514 575L643 570L771 571L900 582L900 601L771 601L643 601L514 601L386 601L257 601L129 601L0 601Z" fill="#f2d37e"></path><path d="M0 590L129 591L257 586L386 582L514 582L643 592L771 591L900 585L900 601L771 601L643 601L514 601L386 601L257 601L129 601L0 601Z" fill="#f2d37e"></path></svg>