<svg id="visual" viewBox="0 0 900 600" width="900" height="600" xmlns="http://www.w3.org/2000/svg" xmlns:xlink="http://www.w3.org/1999/xlink" version="1.1"><rect x="0" y="0" width="900" height="600" fill="#758359"></rect><path d="M0 532L129 511L257 521L386 515L514 500L643 506L771 521L900 515L900 601L771 601L643 601L514 601L386 601L257 601L129 601L0 601Z" fill="#e0a70a"></path><path d="M0 521L129 521L257 529L386 518L514 510L643 514L771 522L900 510L900 601L771 601L643 601L514 601L386 601L257 601L129 601L0 601Z" fill="#e2ad23"></path><path d="M0 535L129 519L257 534L386 519L514 543L643 543L771 522L900 523L900 601L771 601L643 601L514 601L386 601L257 601L129 601L0 601Z" fill="#e4b233"></path><path d="M0 545L129 533L257 545L386 542L514 555L643 530L771 532L900 547L900 601L771 601L643 601L514 601L386 601L257 601L129 601L0 601Z" fill="#e7b841"></path><path d="M0 557L129 546L257 554L386 546L514 561L643 555L771 543L900 539L900 601L771 601L643 601L514 601L386 601L257 601L129 601L0 601Z" fill="#e9bd4e"></path><path d="M0 553L129 554L257 553L386 557L514 555L643 569L771 558L900 563L900 601L771 601L643 601L514 601L386 601L257 601L129 601L0 601Z" fill="#ebc35a"></path><path d="M0 569L129 572L257 575L386 575L514 571L643 567L771 577L900 568L900 601L771 601L643 601L514 601L386 601L257 601L129 601L0 601Z" fill="#edc866"></path><path d="M0 577L129 576L257 577L386 573L514 580L643 585L771 575L900 571L900 601L771 601L643 601L514 601L386 601L257 601L129 601L0 601Z" fill="#f0ce72"></path><path d="M0 582L129 586L257 589L386 588L514 587L643 589L771 583L900 591L900 601L771 601L643 601L514 601L386 601L257 601L129 601L0 601Z" fill="#f2d37e"></path></svg>