<svg id="visual" viewBox="0 0 960 540" width="960" height="540" xmlns="http://www.w3.org/2000/svg" xmlns:xlink="http://www.w3.org/1999/xlink" version="1.1"><rect x="0" y="0" width="960" height="540" fill="#626F47"></rect><path d="M0 399L22.8 388.5C45.7 378 91.3 357 137 356.2C182.7 355.3 228.3 374.7 274 376.7C319.7 378.7 365.3 363.3 411.2 356.5C457 349.7 503 351.3 548.8 349.8C594.7 348.3 640.3 343.7 686 348.5C731.7 353.3 777.3 367.7 823 365.2C868.7 362.7 914.3 343.3 937.2 333.7L960 324L960 541L937.2 541C914.3 541 868.7 541 823 541C777.3 541 731.7 541 686 541C640.3 541 594.7 541 548.8 541C503 541 457 541 411.2 541C365.3 541 319.7 541 274 541C228.3 541 182.7 541 137 541C91.3 541 45.7 541 22.8 541L0 541Z" fill="#ffe281"></path><path d="M0 406L22.8 404.2C45.7 402.3 91.3 398.7 137 395.7C182.7 392.7 228.3 390.3 274 394.2C319.7 398 365.3 408 411.2 415.3C457 422.7 503 427.3 548.8 423.2C594.7 419 640.3 406 686 406C731.7 406 777.3 419 823 413C868.7 407 914.3 382 937.2 369.5L960 357L960 541L937.2 541C914.3 541 868.7 541 823 541C777.3 541 731.7 541 686 541C640.3 541 594.7 541 548.8 541C503 541 457 541 411.2 541C365.3 541 319.7 541 274 541C228.3 541 182.7 541 137 541C91.3 541 45.7 541 22.8 541L0 541Z" fill="#ffd046"></path><path d="M0 412L22.8 416.5C45.7 421 91.3 430 137 431.5C182.7 433 228.3 427 274 420.2C319.7 413.3 365.3 405.7 411.2 405.8C457 406 503 414 548.8 419C594.7 424 640.3 426 686 422.3C731.7 418.7 777.3 409.3 823 405C868.7 400.7 914.3 401.3 937.2 401.7L960 402L960 541L937.2 541C914.3 541 868.7 541 823 541C777.3 541 731.7 541 686 541C640.3 541 594.7 541 548.8 541C503 541 457 541 411.2 541C365.3 541 319.7 541 274 541C228.3 541 182.7 541 137 541C91.3 541 45.7 541 22.8 541L0 541Z" fill="#ffc50f"></path><path d="M0 446L22.8 451.5C45.7 457 91.3 468 137 466C182.7 464 228.3 449 274 441.5C319.7 434 365.3 434 411.2 434.3C457 434.7 503 435.3 548.8 436C594.7 436.7 640.3 437.3 686 441.7C731.7 446 777.3 454 823 456.3C868.7 458.7 914.3 455.3 937.2 453.7L960 452L960 541L937.2 541C914.3 541 868.7 541 823 541C777.3 541 731.7 541 686 541C640.3 541 594.7 541 548.8 541C503 541 457 541 411.2 541C365.3 541 319.7 541 274 541C228.3 541 182.7 541 137 541C91.3 541 45.7 541 22.8 541L0 541Z" fill="#ffd046"></path><path d="M0 483L22.8 485.8C45.7 488.7 91.3 494.3 137 493.3C182.7 492.3 228.3 484.7 274 482C319.7 479.3 365.3 481.7 411.2 487.3C457 493 503 502 548.8 501.2C594.7 500.3 640.3 489.7 686 489C731.7 488.3 777.3 497.7 823 496.5C868.7 495.3 914.3 483.7 937.2 477.8L960 472L960 541L937.2 541C914.3 541 868.7 541 823 541C777.3 541 731.7 541 686 541C640.3 541 594.7 541 548.8 541C503 541 457 541 411.2 541C365.3 541 319.7 541 274 541C228.3 541 182.7 541 137 541C91.3 541 45.7 541 22.8 541L0 541Z" fill="#ffe281"></path></svg>