<svg id="visual" viewBox="0 0 900 600" width="900" height="600" xmlns="http://www.w3.org/2000/svg" xmlns:xlink="http://www.w3.org/1999/xlink" version="1.1"><rect width="900" height="600" fill="#f2d37e"></rect><g><g transform="translate(3 281)"><path d="M22.3 -7.1C25.3 2 21.7 13.4 13.7 19.3C5.7 25.2 -6.6 25.6 -13.9 20.1C-21.2 14.6 -23.5 3.1 -20.4 -6.2C-17.2 -15.5 -8.6 -22.6 0.5 -22.8C9.7 -23 19.3 -16.2 22.3 -7.1Z" fill="none" stroke="#758359" stroke-width="20"></path></g><g transform="translate(705 130)"><path d="M11 -3.3C12.5 1.1 10.8 6.8 7.2 9.2C3.7 11.6 -1.7 10.7 -5.4 7.9C-9.2 5.1 -11.2 0.4 -10 -3.6C-8.8 -7.5 -4.4 -10.7 0.2 -10.8C4.7 -10.8 9.5 -7.7 11 -3.3Z" fill="none" stroke="#758359" stroke-width="20"></path></g><g transform="translate(786 426)"><path d="M12.1 -3.8C13.9 1.4 12.1 7.8 8 10.8C3.8 13.8 -2.8 13.3 -7.4 10C-12.1 6.6 -15 0.4 -13.4 -4.5C-11.9 -9.5 -5.9 -13.2 -0.4 -13C5.2 -12.9 10.4 -9 12.1 -3.8Z" stroke="#758359" fill="none" stroke-width="20"></path></g><g transform="translate(505 509)"><path d="M8.8 -3.1C9.9 0.4 8.1 4.6 5.1 6.7C2.1 8.8 -2.2 8.9 -5.1 6.8C-8 4.8 -9.5 0.6 -8.4 -2.9C-7.3 -6.5 -3.7 -9.3 0.1 -9.4C3.9 -9.4 7.7 -6.6 8.8 -3.1Z" stroke="#758359" fill="none" stroke-width="20"></path></g></g></svg>